<svg width="331" height="220" viewBox="0 0 331 220" fill="none" xmlns="http://www.w3.org/2000/svg">
<path d="M92.376 18.16V14.576H118.36C135.768 14.6613 145.027 14.7893 146.136 14.96C150.744 15.728 154.883 17.2213 158.552 19.44C163.672 22.5973 166.957 26.5653 168.408 31.344C168.92 32.9653 169.176 34.7573 169.176 36.72C169.176 38.256 169.091 39.408 168.92 40.176C168.323 42.3947 167.299 44.528 165.848 46.576C162.605 50.8427 157.699 53.9573 151.128 55.92C150.36 56.0053 149.976 56.1333 149.976 56.304C150.744 56.304 152.536 56.7307 155.352 57.584C160.131 59.2053 163.971 61.5093 166.872 64.496C169.859 67.4827 171.779 70.9387 172.632 74.864C172.973 77.2533 172.931 79.6 172.504 81.904C171.224 88.3893 167.427 93.552 161.112 97.392C158.04 99.44 154.157 100.848 149.464 101.616L147.8 101.872L120.024 102H92.376V98.416V94.832H95.96C101.933 94.832 105.091 94.5333 105.432 93.936V22.64C105.091 22.0427 101.933 21.744 95.96 21.744H92.376V18.16ZM143.704 22.128L142.808 21.872L132.44 21.744C124.675 21.744 120.536 21.872 120.024 22.128C119.683 22.384 119.469 23.408 119.384 25.2C119.384 26.6507 119.384 30.96 119.384 38.128V53.488H129.112C135.768 53.488 139.395 53.4027 139.992 53.232C145.283 52.2933 149.165 49.392 151.64 44.528C152.067 43.76 152.408 42.992 152.664 42.224C153.261 40.432 153.56 38.5973 153.56 36.72C153.56 32.88 152.493 29.5947 150.36 26.864C148.739 24.4747 146.52 22.896 143.704 22.128ZM145.368 59.888C144.685 59.7173 140.163 59.5893 131.8 59.504H119.384V76.656C119.384 88.0907 119.469 93.8933 119.64 94.064C119.896 94.4907 121.261 94.704 123.736 94.704C122.968 94.704 125.699 94.704 131.928 94.704C139.779 94.704 144.173 94.576 145.112 94.32C145.197 94.2347 145.411 94.1493 145.752 94.064C150.616 92.3573 153.944 89.072 155.736 84.208C156.077 83.2693 156.333 82.288 156.504 81.264C157.443 76.656 156.803 72.2187 154.584 67.952C154.413 67.6107 154.2 67.2693 153.944 66.928C151.725 63.1733 148.867 60.8267 145.368 59.888Z" fill="#0D99FF"/>
<path d="M118.248 57.16V53.576H119.656L129.896 53.832C135.784 53.9173 141.672 53.9173 147.56 53.832L157.8 53.576H159.208V57.16V60.744H155.624C149.651 60.744 146.493 61.0427 146.152 61.64C146.067 61.7253 146.024 66.8027 146.024 76.872V91.976H163.432H180.712V76.872C180.712 66.8027 180.669 61.7253 180.584 61.64C180.243 61.0427 177.085 60.744 171.112 60.744H167.528V57.16V53.576H168.936L179.176 53.832C185.064 53.9173 190.952 53.9173 196.84 53.832L207.08 53.576H208.488V57.16V60.744H204.904C198.931 60.744 195.773 61.0427 195.432 61.64V132.936C195.773 133.533 198.931 133.832 204.904 133.832H208.488V137.416V141H207.08L196.84 140.744C190.952 140.659 185.064 140.659 179.176 140.744L168.936 141H167.528V137.416V133.832H171.112C177.085 133.832 180.243 133.533 180.584 132.936C180.669 132.851 180.712 127.176 180.712 115.912V99.144H163.432H146.024V115.912C146.024 127.176 146.067 132.851 146.152 132.936C146.493 133.533 149.651 133.832 155.624 133.832H159.208V137.416V141H157.8L147.56 140.744C141.672 140.659 135.784 140.659 129.896 140.744L119.656 141H118.248V137.416V133.832H121.832C127.805 133.832 130.963 133.533 131.304 132.936V61.64C130.963 61.0427 127.805 60.744 121.832 60.744H118.248V57.16Z" fill="#0D99FF"/>
<path d="M9.57601 188.204C9.12001 188.204 8.89201 188.072 8.89201 187.808C8.89201 187.28 9.74401 185.804 11.448 183.38C12.216 182.324 13.032 181.244 13.896 180.14C14.784 179.012 15.708 177.872 16.668 176.72C15.78 176.888 15 177.008 14.328 177.08C13.656 177.152 13.116 177.188 12.708 177.188C12.612 177.164 12.564 177.104 12.564 177.008C12.564 176.84 12.708 176.636 12.996 176.396C13.284 176.156 13.524 176.036 13.716 176.036C13.764 176.036 13.932 176.036 14.22 176.036C14.532 176.036 14.952 176.024 15.48 176H17.316C17.676 175.52 18.3 174.644 19.188 173.372C20.1 172.1 21.288 170.432 22.752 168.368C23.904 166.712 24.48 165.344 24.48 164.264C24.48 162.584 23.232 161.744 20.736 161.744C19.224 161.744 17.616 162.02 15.912 162.572C14.232 163.124 12.576 163.868 10.944 164.804C9.33601 165.716 7.89601 166.712 6.62401 167.792C5.06401 169.112 3.82801 170.528 2.91601 172.04C2.00401 173.528 1.54801 174.86 1.54801 176.036C1.54801 178.076 2.88001 179.012 5.54401 178.844C7.00801 178.724 8.43601 177.848 9.82801 176.216C11.172 174.608 11.772 173.24 11.628 172.112C12.252 172.232 12.564 172.604 12.564 173.228C12.564 174.26 11.916 175.448 10.62 176.792C9.73201 177.68 8.73601 178.388 7.63201 178.916C6.55201 179.444 5.41201 179.708 4.21201 179.708C2.86801 179.708 1.82401 179.36 1.08001 178.664C0.360007 177.944 6.83218e-06 176.996 6.83218e-06 175.82C6.83218e-06 172.988 1.72801 170.132 5.18401 167.252C6.69601 166.004 8.32801 164.924 10.08 164.012C11.832 163.076 13.632 162.356 15.48 161.852C17.328 161.324 19.14 161.06 20.916 161.06C22.668 161.06 24.06 161.36 25.092 161.96C26.124 162.536 26.64 163.388 26.64 164.516C26.64 165.548 26.172 166.736 25.236 168.08C24.924 168.56 24.288 169.46 23.328 170.78C22.368 172.1 21.072 173.828 19.44 175.964L21.528 176.036C22.08 176.06 22.512 176.084 22.824 176.108C23.136 176.108 23.316 176.096 23.364 176.072H23.58C24.012 176.072 24.228 176.156 24.228 176.324C24.228 176.66 23.76 176.828 22.824 176.828C22.8 176.828 22.668 176.828 22.428 176.828C22.212 176.828 21.9 176.816 21.492 176.792C21.132 176.768 20.808 176.756 20.52 176.756C20.232 176.756 19.98 176.756 19.764 176.756C19.14 176.804 18.768 176.864 18.648 176.936C18.12 177.608 17.532 178.364 16.884 179.204C16.26 180.044 15.588 180.968 14.868 181.976C12.972 184.592 12.024 186.128 12.024 186.584C12.024 186.728 12.108 186.752 12.276 186.656C12.468 186.56 12.6 186.488 12.672 186.44C12.936 186.44 13.068 186.476 13.068 186.548C13.068 186.668 12.804 186.848 12.276 187.088L11.268 187.628C10.812 188.012 10.248 188.204 9.57601 188.204ZM31.1341 172.616C30.7261 172.616 30.3661 172.484 30.0541 172.22C29.7661 171.956 29.6221 171.656 29.6221 171.32C29.6221 170.648 30.0781 170.312 30.9901 170.312C31.3261 170.312 31.6621 170.432 31.9981 170.672C32.3341 170.888 32.5021 171.164 32.5021 171.5C32.5021 171.788 32.3461 172.052 32.0341 172.292C31.7221 172.508 31.4221 172.616 31.1341 172.616ZM24.4741 185.396C23.9461 185.396 23.5141 185.228 23.1781 184.892C22.8181 184.532 22.6381 183.908 22.6381 183.02C22.6381 182.516 22.7581 181.94 22.9981 181.292C23.2141 180.62 23.4901 179.948 23.8261 179.276C24.1861 178.604 24.5341 178.004 24.8701 177.476C26.2141 175.292 27.3181 174.188 28.1821 174.164C28.3981 174.164 28.6621 174.26 28.9741 174.452C29.2861 174.62 29.4421 174.812 29.4421 175.028C29.4421 175.028 28.5301 176.204 26.7061 178.556C24.9061 180.884 24.0061 182.54 24.0061 183.524C24.0061 184.292 24.3061 184.676 24.9061 184.676C25.2901 184.676 25.7821 184.52 26.3821 184.208C27.0061 183.872 27.6541 183.452 28.3261 182.948C28.9981 182.444 29.6341 181.904 30.2341 181.328C30.8581 180.752 31.3621 180.224 31.7461 179.744C31.9861 179.432 32.1901 179.216 32.3581 179.096C32.5501 178.976 32.6701 178.916 32.7181 178.916C32.8141 178.916 32.8621 178.988 32.8621 179.132C32.8621 179.252 32.7181 179.492 32.4301 179.852C32.1661 180.212 31.7941 180.632 31.3141 181.112C30.7381 181.688 30.1021 182.312 29.4061 182.984C28.7101 183.656 27.9541 184.232 27.1381 184.712C26.3221 185.168 25.4341 185.396 24.4741 185.396ZM40.4792 185.072C39.8312 185.072 39.3752 184.892 39.1112 184.532C38.8472 184.148 38.7152 183.68 38.7152 183.128C38.7152 181.736 39.1952 180.248 40.1552 178.664L42.4592 174.92C40.8272 176.12 39.2072 177.62 37.5992 179.42C37.1672 179.9 36.6752 180.464 36.1232 181.112C35.5952 181.76 35.0072 182.504 34.3592 183.344C33.4952 184.472 32.9792 185.036 32.8112 185.036C32.4752 185.036 32.1992 184.892 31.9832 184.604C31.7672 184.292 31.6592 184.016 31.6592 183.776C31.6592 183.584 31.7192 183.236 31.8392 182.732C31.9592 182.204 32.1032 181.748 32.2712 181.364C32.4392 180.956 32.6072 180.56 32.7752 180.176C32.9672 179.768 33.1472 179.372 33.3152 178.988L31.1552 181.256C31.1072 181.304 30.9632 181.448 30.7232 181.688C30.4832 181.928 30.2912 182.048 30.1472 182.048C30.0272 182.048 29.9672 181.964 29.9672 181.796C29.9672 181.748 29.9912 181.688 30.0392 181.616C30.0632 181.52 30.1352 181.412 30.2552 181.292C30.6152 180.932 30.9872 180.548 31.3712 180.14C31.7552 179.732 32.1512 179.264 32.5592 178.736C32.7752 178.472 33.0992 178.076 33.5312 177.548C33.9632 176.996 34.4312 176.408 34.9352 175.784C35.4632 175.16 35.9552 174.584 36.4112 174.056C36.5312 173.888 36.6632 173.78 36.8072 173.732C36.9512 173.66 37.0472 173.624 37.0952 173.624C37.7432 173.624 38.0672 173.876 38.0672 174.38C38.0672 174.524 38.0312 174.668 37.9592 174.812C35.7992 177.788 34.5032 180.056 34.0712 181.616C36.8552 178.832 39.0872 176.744 40.7672 175.352C42.4712 173.936 43.6832 173.228 44.4032 173.228C44.7872 173.228 45.0752 173.288 45.2672 173.408C45.4832 173.528 45.5912 173.756 45.5912 174.092C45.5912 174.212 45.5792 174.308 45.5552 174.38C45.4832 174.548 44.9912 175.22 44.0792 176.396C43.5272 177.068 43.0352 177.68 42.6032 178.232C42.1952 178.784 41.8592 179.264 41.5952 179.672C41.1632 180.344 40.8392 180.98 40.6232 181.58C40.4072 182.156 40.2992 182.648 40.2992 183.056C40.2992 183.224 40.3232 183.428 40.3712 183.668C40.4192 183.908 40.5632 184.028 40.8032 184.028C41.3552 184.028 42.2192 183.548 43.3952 182.588C43.9472 182.108 44.4632 181.628 44.9432 181.148C45.4232 180.644 45.8792 180.152 46.3112 179.672C46.4072 179.576 46.5632 179.396 46.7792 179.132C46.9952 178.844 47.1272 178.7 47.1752 178.7C47.2712 178.7 47.3192 178.796 47.3192 178.988C47.3192 179.084 47.2592 179.252 47.1392 179.492C47.0432 179.708 46.9352 179.876 46.8152 179.996C46.5512 180.308 46.1552 180.74 45.6272 181.292C45.1232 181.844 44.5472 182.408 43.8992 182.984C43.2752 183.56 42.6632 184.052 42.0632 184.46C41.4632 184.868 40.9352 185.072 40.4792 185.072ZM48.2307 185.18C47.5107 185.18 46.8987 184.988 46.3947 184.604C45.8907 184.196 45.6027 183.704 45.5307 183.128C45.4347 182.36 45.5427 181.592 45.8547 180.824C46.1907 180.032 46.6347 179.276 47.1867 178.556C47.7627 177.836 48.3747 177.164 49.0227 176.54C51.5667 173.996 53.8587 172.724 55.8987 172.724C56.5947 172.724 57.0627 172.904 57.3027 173.264C57.3987 173.384 57.5067 173.66 57.6267 174.092C60.3147 169.724 62.1867 167.54 63.2427 167.54C63.4827 167.54 63.7347 167.6 63.9987 167.72C64.2627 167.84 64.3947 167.996 64.3947 168.188C64.3947 168.308 64.3347 168.464 64.2147 168.656C63.4947 169.544 62.7747 170.432 62.0547 171.32C61.3347 172.184 60.6267 173.06 59.9307 173.948C58.7547 175.436 57.8067 176.732 57.0867 177.836C56.3667 178.94 55.8507 179.876 55.5387 180.644C55.4427 180.884 55.3467 181.184 55.2507 181.544C55.1787 181.88 55.1427 182.228 55.1427 182.588C55.1427 183.044 55.2387 183.44 55.4307 183.776C55.6227 184.112 55.9707 184.28 56.4747 184.28C57.2667 184.28 58.2387 183.896 59.3907 183.128C60.5427 182.36 61.8867 181.1 63.4227 179.348C63.5187 179.252 63.6027 179.168 63.6747 179.096C63.7707 179.024 63.8667 178.976 63.9627 178.952C64.1787 178.904 64.2867 178.952 64.2867 179.096C64.2867 179.168 64.2147 179.3 64.0707 179.492C63.3267 180.38 62.4987 181.256 61.5867 182.12C60.6747 182.984 59.7387 183.704 58.7787 184.28C57.8427 184.832 56.9667 185.108 56.1507 185.108C55.3347 185.108 54.7587 184.832 54.4227 184.28C54.0867 183.728 53.9187 183.104 53.9187 182.408C53.9187 181.688 54.0507 181.028 54.3147 180.428L51.3987 183.344C50.7507 183.992 50.1507 184.46 49.5987 184.748C49.0707 185.036 48.6147 185.18 48.2307 185.18ZM47.9067 184.388C48.9387 184.388 50.6547 182.972 53.0547 180.14C53.1747 179.996 53.5947 179.468 54.3147 178.556C55.0347 177.62 56.0547 176.264 57.3747 174.488C57.2067 174.2 56.9187 174.056 56.5107 174.056C55.0227 174.056 53.0307 175.232 50.5347 177.584C48.1827 179.768 47.0067 181.604 47.0067 183.092C47.0067 183.956 47.3067 184.388 47.9067 184.388ZM81.8561 194.144C81.2561 194.144 80.6441 194 80.0201 193.712C79.4201 193.424 78.9041 193.04 78.4721 192.56C78.0641 192.08 77.8601 191.564 77.8601 191.012C77.8601 190.508 78.1121 190.256 78.6161 190.256C78.7121 190.256 78.7961 190.256 78.8681 190.256C78.9641 190.28 79.0601 190.304 79.1561 190.328C79.4441 191.36 79.7441 192.116 80.0561 192.596C80.3681 193.1 81.0041 193.352 81.9641 193.352C83.4521 193.352 85.0721 192.332 86.8241 190.292C88.6001 188.252 90.6041 185.24 92.8361 181.256L99.3161 169.7L95.5721 173.696C94.0361 175.328 92.7641 176.66 91.7561 177.692C90.7481 178.724 90.0041 179.48 89.5241 179.96C88.6601 180.824 87.8081 181.628 86.9681 182.372C86.1281 183.116 85.2881 183.716 84.4481 184.172C83.6321 184.628 82.7921 184.856 81.9281 184.856C80.5601 184.856 79.8761 184.052 79.8761 182.444C79.8761 180.524 80.6921 178.544 82.3241 176.504C82.9241 175.784 83.5241 175.064 84.1241 174.344C84.7241 173.624 85.3241 172.892 85.9241 172.148C87.8681 169.7 89.2961 167.696 90.2081 166.136C90.5441 165.536 90.7961 165.008 90.9641 164.552C91.1561 164.096 91.2521 163.688 91.2521 163.328C91.2521 162.8 91.0241 162.416 90.5681 162.176C90.1121 161.912 89.3801 161.78 88.3721 161.78C85.8281 161.78 82.3121 163.316 77.8241 166.388C76.7681 167.084 75.7721 167.936 74.8361 168.944C73.9001 169.952 73.1441 171.008 72.5681 172.112C71.9921 173.216 71.7041 174.284 71.7041 175.316C71.7041 176.372 72.0161 177.14 72.6401 177.62C73.2881 178.076 74.0801 178.304 75.0161 178.304C76.2401 178.304 77.5961 177.776 79.0841 176.72C80.8361 175.544 81.8201 174.92 82.0361 174.848C81.7961 175.736 80.8481 176.708 79.1921 177.764C77.3681 178.892 75.6641 179.456 74.0801 179.456C72.8321 179.456 71.8841 179.024 71.2361 178.16C70.5881 177.296 70.2641 176.288 70.2641 175.136C70.2641 171.872 72.6521 168.536 77.4281 165.128C78.3881 164.432 79.5401 163.784 80.8841 163.184C82.2521 162.584 83.6441 162.104 85.0601 161.744C86.4761 161.36 87.7481 161.168 88.8761 161.168C89.9321 161.168 90.8441 161.372 91.6121 161.78C92.3801 162.188 92.7641 162.848 92.7641 163.76C92.7641 164.864 92.0561 166.508 90.6401 168.692C90.0401 169.628 89.2121 170.78 88.1561 172.148C87.1241 173.516 85.8641 175.088 84.3761 176.864C83.7761 177.56 83.2241 178.472 82.7201 179.6C82.2161 180.704 81.9641 181.592 81.9641 182.264C81.9641 182.912 82.2161 183.236 82.7201 183.236C83.2481 183.236 84.0281 182.864 85.0601 182.12C87.9881 180.032 91.0001 177.404 94.0961 174.236C96.8321 171.452 98.8841 169.052 100.252 167.036C101.236 165.62 102.28 164.912 103.384 164.912C103.768 164.912 103.96 165.032 103.96 165.272C103.96 165.32 103.948 165.368 103.924 165.416C103.924 165.464 103.912 165.512 103.888 165.56C102.616 167.792 100.948 170.66 98.8841 174.164C96.8441 177.668 94.3961 181.808 91.5401 186.584C90.7481 187.88 89.8241 189.104 88.7681 190.256C87.7121 191.408 86.5961 192.344 85.4201 193.064C84.2441 193.784 83.0561 194.144 81.8561 194.144ZM103.054 185.072C102.454 185.072 101.986 184.796 101.65 184.244C101.314 183.668 101.146 183.116 101.146 182.588C101.146 181.148 102.19 179.132 104.278 176.54C106.39 173.924 108.094 172.616 109.39 172.616C110.614 172.616 111.226 173.264 111.226 174.56C111.226 174.752 111.202 174.956 111.154 175.172C111.13 175.388 111.094 175.616 111.046 175.856C111.094 175.928 111.214 175.964 111.406 175.964C112.054 175.964 112.822 175.736 113.71 175.28C113.686 175.688 112.738 176.276 110.866 177.044C111.13 177.836 110.338 179.348 108.49 181.58C106.594 183.908 104.974 185.072 103.63 185.072H103.054ZM103.702 183.992C104.734 183.992 106.054 183.044 107.662 181.148C109.222 179.3 110.002 177.968 110.002 177.152C109.618 176.936 109.138 176.384 108.562 175.496C107.746 175.496 106.57 176.48 105.034 178.448C103.522 180.368 102.79 181.844 102.838 182.876C102.862 183.62 103.15 183.992 103.702 183.992ZM113.323 185.396C112.243 185.396 111.703 184.712 111.703 183.344C111.703 182.816 111.859 182.192 112.171 181.472C112.507 180.728 112.975 179.948 113.575 179.132C113.575 179.132 113.359 179.336 112.927 179.744C112.495 180.152 112.003 180.668 111.451 181.292C111.355 181.388 111.235 181.436 111.091 181.436C110.995 181.436 110.947 181.376 110.947 181.256C110.947 181.136 111.055 180.932 111.271 180.644L116.239 174.812C116.863 174.092 117.547 173.732 118.291 173.732C118.843 173.732 119.119 173.948 119.119 174.38C119.119 174.548 119.047 174.704 118.903 174.848C118.447 175.28 117.883 175.892 117.211 176.684C116.563 177.476 115.927 178.328 115.303 179.24C114.679 180.152 114.151 181.028 113.719 181.868C113.311 182.684 113.107 183.344 113.107 183.848C113.107 184.28 113.251 184.496 113.539 184.496C113.707 184.496 113.971 184.436 114.331 184.316C114.691 184.172 115.171 183.896 115.771 183.488C116.371 183.056 117.091 182.396 117.931 181.508C118.075 181.364 118.459 180.932 119.083 180.212C119.707 179.492 120.547 178.46 121.603 177.116C123.475 174.788 124.699 173.624 125.275 173.624C126.067 173.624 126.499 173.948 126.571 174.596C126.619 174.812 126.115 175.52 125.059 176.72C123.691 178.376 122.755 179.564 122.251 180.284C121.315 181.652 120.847 182.72 120.847 183.488C120.847 184.016 121.027 184.28 121.387 184.28C121.747 184.28 122.203 184.112 122.755 183.776C123.331 183.416 123.931 182.972 124.555 182.444C125.179 181.892 125.779 181.328 126.355 180.752C126.955 180.152 127.471 179.6 127.903 179.096C128.047 178.928 128.191 178.844 128.335 178.844C128.479 178.844 128.551 178.916 128.551 179.06C128.551 179.108 128.539 179.18 128.515 179.276C128.491 179.372 128.419 179.48 128.299 179.6C127.915 180.032 127.423 180.572 126.823 181.22C126.223 181.844 125.575 182.468 124.879 183.092C124.183 183.716 123.511 184.232 122.863 184.64C122.215 185.048 121.663 185.252 121.207 185.252C120.655 185.252 120.175 185.108 119.767 184.82C119.359 184.508 119.155 184.088 119.155 183.56C119.155 183.032 119.239 182.504 119.407 181.976C119.575 181.424 119.707 180.956 119.803 180.572C118.675 181.892 117.679 182.9 116.815 183.596C115.975 184.292 115.267 184.76 114.691 185C114.115 185.264 113.659 185.396 113.323 185.396ZM134.268 185.18C133.236 185.18 132.528 184.916 132.144 184.388C131.76 183.836 131.568 183.104 131.568 182.192C131.568 181.184 131.88 179.984 132.504 178.592C132.744 178.04 132.996 177.548 133.26 177.116C133.524 176.66 133.8 176.24 134.088 175.856C133.992 175.88 133.908 175.892 133.836 175.892C133.764 175.892 133.692 175.892 133.62 175.892C133.044 175.892 132.564 175.484 132.18 174.668L129.516 178.124C128.1 179.972 127.236 180.896 126.924 180.896C126.804 180.896 126.744 180.848 126.744 180.752C126.744 180.632 126.804 180.476 126.924 180.284C126.996 180.14 127.14 179.948 127.356 179.708C128.268 178.652 129.108 177.608 129.876 176.576C130.644 175.544 131.28 174.536 131.784 173.552C132.336 171.464 133.032 170.42 133.872 170.42C134.424 170.42 134.7 170.672 134.7 171.176C134.7 171.632 134.4 172.232 133.8 172.976C133.224 173.72 132.936 174.104 132.936 174.128C132.936 174.632 133.308 174.884 134.052 174.884C134.484 174.884 134.964 174.728 135.492 174.416L136.428 173.84C136.476 173.816 136.548 173.804 136.644 173.804C136.932 173.804 137.184 173.924 137.4 174.164C137.616 174.404 137.688 174.62 137.616 174.812L135.132 177.944C133.596 179.912 132.828 181.496 132.828 182.696C132.828 183.776 133.356 184.316 134.412 184.316C135.132 184.316 135.9 184.1 136.716 183.668C137.556 183.236 138.36 182.708 139.128 182.084C139.92 181.436 140.58 180.812 141.108 180.212L141.972 179.204C142.02 179.156 142.08 179.096 142.152 179.024C142.224 178.952 142.284 178.916 142.332 178.916C142.5 178.916 142.584 179 142.584 179.168C142.584 179.216 142.56 179.3 142.512 179.42C142.464 179.54 142.38 179.672 142.26 179.816L141.108 181.112C140.556 181.736 139.872 182.372 139.056 183.02C138.264 183.644 137.436 184.16 136.572 184.568C135.732 184.976 134.964 185.18 134.268 185.18ZM155.897 188.888C154.025 188.888 152.537 188.444 151.433 187.556C150.329 186.692 149.777 185.432 149.777 183.776C149.777 182.576 150.029 181.448 150.533 180.392C151.061 179.312 151.769 178.352 152.657 177.512C153.545 176.672 154.553 176.012 155.681 175.532C156.833 175.052 158.033 174.812 159.281 174.812C160.553 174.812 161.549 175.1 162.269 175.676C163.013 176.252 163.385 177.032 163.385 178.016C163.385 178.736 162.917 179.672 161.981 180.824C161.045 181.976 160.577 182.36 160.577 181.976C160.577 181.88 160.613 181.784 160.685 181.688C161.453 180.56 161.837 179.504 161.837 178.52C161.837 177.632 161.549 176.924 160.973 176.396C160.421 175.868 159.689 175.604 158.777 175.604C157.769 175.604 156.797 175.856 155.861 176.36C154.949 176.84 154.133 177.488 153.413 178.304C152.693 179.12 152.129 180.02 151.721 181.004C151.313 181.988 151.109 182.96 151.109 183.92C151.109 185.24 151.529 186.236 152.369 186.908C153.233 187.604 154.361 187.952 155.753 187.952C157.169 187.952 158.525 187.688 159.821 187.16C161.141 186.656 162.317 185.924 163.349 184.964C164.573 183.812 165.809 182.132 167.057 179.924L170.189 174.272C171.005 172.976 171.857 171.416 172.745 169.592C173.633 167.744 174.569 165.632 175.553 163.256C172.097 163.208 168.737 163.544 165.473 164.264C161.993 165.008 159.413 166.04 157.733 167.36C157.013 167.888 156.653 168.44 156.653 169.016C156.653 169.52 156.929 169.94 157.481 170.276C158.057 170.588 158.777 170.744 159.641 170.744C160.145 170.744 160.745 170.672 161.441 170.528C162.137 170.384 162.809 170.192 163.457 169.952C164.105 169.688 164.597 169.4 164.933 169.088C165.173 168.896 165.341 168.8 165.437 168.8C165.629 168.8 165.665 168.896 165.545 169.088C165.041 169.688 164.381 170.192 163.565 170.6C162.773 171.008 161.933 171.32 161.045 171.536C160.157 171.728 159.329 171.824 158.561 171.824C157.385 171.824 156.461 171.596 155.789 171.14C155.141 170.66 154.817 170.048 154.817 169.304C154.817 168.44 155.249 167.6 156.113 166.784C157.745 165.2 160.661 164.024 164.861 163.256C166.493 162.968 168.245 162.764 170.117 162.644C171.989 162.5 173.981 162.44 176.093 162.464C176.621 162.008 177.125 161.78 177.605 161.78C178.085 161.78 178.265 162.032 178.145 162.536C179.657 162.632 181.181 162.824 182.717 163.112C184.277 163.4 185.693 163.808 186.965 164.336C188.261 164.84 189.305 165.476 190.097 166.244C190.889 166.988 191.285 167.876 191.285 168.908C191.285 170.012 190.913 171.068 190.169 172.076C189.449 173.06 188.513 173.936 187.361 174.704C186.233 175.472 185.045 176.084 183.797 176.54C182.645 176.948 181.409 177.272 180.089 177.512C178.793 177.752 177.509 177.872 176.237 177.872C175.277 177.872 174.353 177.8 173.465 177.656C172.601 177.512 171.809 177.284 171.089 176.972C169.625 179.108 168.401 180.848 167.417 182.192C166.457 183.536 165.713 184.472 165.185 185C162.593 187.592 159.497 188.888 155.897 188.888ZM175.337 177.008C176.225 177.008 177.101 176.924 177.965 176.756C178.853 176.564 179.801 176.312 180.809 176C181.817 175.664 182.837 175.244 183.869 174.74C184.901 174.212 185.849 173.624 186.713 172.976C187.577 172.304 188.273 171.596 188.801 170.852C189.329 170.084 189.593 169.316 189.593 168.548C189.593 167.684 189.233 166.94 188.513 166.316C187.793 165.668 186.845 165.14 185.669 164.732C184.493 164.324 183.221 164.012 181.853 163.796C180.485 163.556 179.165 163.4 177.893 163.328L176.741 166.928C176.333 167.96 175.757 169.16 175.013 170.528C174.269 171.896 173.357 173.432 172.277 175.136L171.485 176.36C171.653 176.456 171.833 176.54 172.025 176.612C172.241 176.66 172.469 176.708 172.709 176.756C173.165 176.852 173.609 176.924 174.041 176.972C174.473 176.996 174.905 177.008 175.337 177.008ZM188.104 185.468C187.336 185.468 186.64 185.228 186.016 184.748C185.392 184.244 185.08 183.584 185.08 182.768C185.08 181.064 186.124 179.12 188.212 176.936C190.348 174.728 192.256 173.624 193.936 173.624C194.488 173.624 194.932 173.78 195.268 174.092C195.628 174.38 195.808 174.74 195.808 175.172C195.808 176.516 194.74 177.836 192.604 179.132C190.708 180.284 189.112 180.86 187.816 180.86C187.624 180.86 187.456 180.836 187.312 180.788C186.952 181.436 186.772 182.12 186.772 182.84C186.772 184.088 187.36 184.712 188.536 184.712C189.736 184.712 191.284 183.908 193.18 182.3C194.644 181.124 195.892 179.876 196.924 178.556C197.14 178.268 197.332 178.124 197.5 178.124C197.644 178.124 197.716 178.196 197.716 178.34C197.716 178.484 197.62 178.688 197.428 178.952C196.756 179.84 196.036 180.656 195.268 181.4C194.5 182.144 193.672 182.828 192.784 183.452C190.936 184.796 189.376 185.468 188.104 185.468ZM188.32 180.068C189.232 180.068 190.42 179.612 191.884 178.7C192.364 178.364 192.832 177.992 193.288 177.584C193.768 177.152 194.152 176.72 194.44 176.288C194.752 175.856 194.908 175.472 194.908 175.136C194.908 174.824 194.656 174.668 194.152 174.668C193.432 174.668 192.424 175.208 191.128 176.288C190.504 176.816 189.904 177.392 189.328 178.016C188.752 178.64 188.26 179.3 187.852 179.996C187.996 180.044 188.152 180.068 188.32 180.068ZM202.858 185.18C201.826 185.18 201.118 184.916 200.734 184.388C200.35 183.836 200.158 183.104 200.158 182.192C200.158 181.184 200.47 179.984 201.094 178.592C201.334 178.04 201.586 177.548 201.85 177.116C202.114 176.66 202.39 176.24 202.678 175.856C202.582 175.88 202.498 175.892 202.426 175.892C202.354 175.892 202.282 175.892 202.21 175.892C201.634 175.892 201.154 175.484 200.77 174.668L198.106 178.124C196.69 179.972 195.826 180.896 195.514 180.896C195.394 180.896 195.334 180.848 195.334 180.752C195.334 180.632 195.394 180.476 195.514 180.284C195.586 180.14 195.73 179.948 195.946 179.708C196.858 178.652 197.698 177.608 198.466 176.576C199.234 175.544 199.87 174.536 200.374 173.552C200.926 171.464 201.622 170.42 202.462 170.42C203.014 170.42 203.29 170.672 203.29 171.176C203.29 171.632 202.99 172.232 202.39 172.976C201.814 173.72 201.526 174.104 201.526 174.128C201.526 174.632 201.898 174.884 202.642 174.884C203.074 174.884 203.554 174.728 204.082 174.416L205.018 173.84C205.066 173.816 205.138 173.804 205.234 173.804C205.522 173.804 205.774 173.924 205.99 174.164C206.206 174.404 206.278 174.62 206.206 174.812L203.722 177.944C202.186 179.912 201.418 181.496 201.418 182.696C201.418 183.776 201.946 184.316 203.002 184.316C203.722 184.316 204.49 184.1 205.306 183.668C206.146 183.236 206.95 182.708 207.718 182.084C208.51 181.436 209.17 180.812 209.698 180.212L210.562 179.204C210.61 179.156 210.67 179.096 210.742 179.024C210.814 178.952 210.874 178.916 210.922 178.916C211.09 178.916 211.174 179 211.174 179.168C211.174 179.216 211.15 179.3 211.102 179.42C211.054 179.54 210.97 179.672 210.85 179.816L209.698 181.112C209.146 181.736 208.462 182.372 207.646 183.02C206.854 183.644 206.026 184.16 205.162 184.568C204.322 184.976 203.554 185.18 202.858 185.18ZM203.562 192.38C202.842 192.38 202.23 192.08 201.726 191.48C201.222 190.88 200.958 190.232 200.934 189.536C201.006 189.248 201.114 189.104 201.258 189.104C201.402 189.104 201.486 189.284 201.51 189.644C201.534 190.028 201.726 190.4 202.086 190.76C202.446 191.12 202.806 191.3 203.166 191.3C205.206 191.3 207.066 190.04 208.746 187.52C209.202 186.848 209.766 185.876 210.438 184.604C211.11 183.308 211.854 181.688 212.67 179.744L214.614 175.064C212.214 175.04 211.014 174.752 211.014 174.2C211.014 173.936 211.134 173.732 211.374 173.588C211.614 173.42 211.806 173.336 211.95 173.336C211.974 173.336 212.274 173.348 212.85 173.372C213.426 173.372 214.254 173.384 215.334 173.408C217.686 168.176 219.846 165.56 221.814 165.56C222.582 165.56 223.338 165.92 224.082 166.64C224.274 166.832 224.37 167.084 224.37 167.396C224.37 168.14 224.154 168.512 223.722 168.512C223.602 168.512 223.482 168.416 223.362 168.224C223.266 168.056 223.11 167.924 222.894 167.828C222.678 167.708 222.474 167.648 222.282 167.648C221.562 167.648 220.926 167.924 220.374 168.476C219.846 169.004 219.342 169.7 218.862 170.564C218.406 171.428 217.914 172.376 217.386 173.408H217.818C220.434 173.408 222.174 173.372 223.038 173.3C223.134 173.324 223.182 173.372 223.182 173.444C223.182 173.636 222.33 173.9 220.626 174.236C219.954 174.332 219.294 174.44 218.646 174.56C217.998 174.68 217.338 174.8 216.666 174.92C216.354 175.592 215.97 176.396 215.514 177.332C215.058 178.244 214.542 179.264 213.966 180.392C212.838 182.504 211.914 184.184 211.194 185.432C210.474 186.68 209.97 187.508 209.682 187.916C207.594 190.892 205.554 192.38 203.562 192.38ZM220.237 185.468C219.469 185.468 218.773 185.228 218.149 184.748C217.525 184.244 217.213 183.584 217.213 182.768C217.213 181.064 218.257 179.12 220.345 176.936C222.481 174.728 224.389 173.624 226.069 173.624C226.621 173.624 227.065 173.78 227.401 174.092C227.761 174.38 227.941 174.74 227.941 175.172C227.941 176.516 226.873 177.836 224.737 179.132C222.841 180.284 221.245 180.86 219.949 180.86C219.757 180.86 219.589 180.836 219.445 180.788C219.085 181.436 218.905 182.12 218.905 182.84C218.905 184.088 219.493 184.712 220.669 184.712C221.869 184.712 223.417 183.908 225.313 182.3C226.777 181.124 228.025 179.876 229.057 178.556C229.273 178.268 229.465 178.124 229.633 178.124C229.777 178.124 229.849 178.196 229.849 178.34C229.849 178.484 229.753 178.688 229.561 178.952C228.889 179.84 228.169 180.656 227.401 181.4C226.633 182.144 225.805 182.828 224.917 183.452C223.069 184.796 221.509 185.468 220.237 185.468ZM220.453 180.068C221.365 180.068 222.553 179.612 224.017 178.7C224.497 178.364 224.965 177.992 225.421 177.584C225.901 177.152 226.285 176.72 226.573 176.288C226.885 175.856 227.041 175.472 227.041 175.136C227.041 174.824 226.789 174.668 226.285 174.668C225.565 174.668 224.557 175.208 223.261 176.288C222.637 176.816 222.037 177.392 221.461 178.016C220.885 178.64 220.393 179.3 219.985 179.996C220.129 180.044 220.285 180.068 220.453 180.068ZM230.383 185.468C229.615 185.468 228.919 185.228 228.295 184.748C227.671 184.244 227.359 183.584 227.359 182.768C227.359 181.064 228.403 179.12 230.491 176.936C232.627 174.728 234.535 173.624 236.215 173.624C236.791 173.624 237.247 173.78 237.583 174.092C237.919 174.38 238.087 174.74 238.087 175.172C238.087 175.772 237.943 176.324 237.655 176.828C237.319 177.452 236.839 177.764 236.215 177.764C235.591 177.764 235.279 177.572 235.279 177.188C235.279 176.924 235.435 176.528 235.747 176C236.083 175.448 236.251 175.16 236.251 175.136C236.251 175.088 236.215 175.064 236.143 175.064C235.471 175.136 234.535 175.628 233.335 176.54C232.807 176.948 232.339 177.332 231.931 177.692C231.547 178.052 231.235 178.4 230.995 178.736L229.591 180.788C229.447 181.004 229.291 181.376 229.123 181.904C228.979 182.432 228.907 182.828 228.907 183.092C228.907 183.572 229.063 183.968 229.375 184.28C229.711 184.592 230.131 184.748 230.635 184.748C231.835 184.748 233.419 183.968 235.387 182.408C236.971 181.16 238.243 179.9 239.203 178.628C239.323 178.484 239.467 178.412 239.635 178.412C239.803 178.412 239.887 178.46 239.887 178.556C239.887 178.628 239.827 178.748 239.707 178.916C238.387 180.668 236.839 182.18 235.063 183.452C233.167 184.796 231.607 185.468 230.383 185.468ZM240.074 185.216C239.306 185.216 238.694 185.036 238.238 184.676C237.806 184.292 237.59 183.62 237.59 182.66C237.59 182.108 237.758 181.412 238.094 180.572C238.43 179.708 238.85 178.784 239.354 177.8C239.858 176.816 240.362 175.844 240.866 174.884C240.554 174.956 240.278 174.992 240.038 174.992C239.318 174.992 238.958 174.716 238.958 174.164C238.958 173.9 239.054 173.696 239.246 173.552C239.462 173.408 239.654 173.324 239.822 173.3C239.822 173.3 239.846 173.3 239.894 173.3C239.966 173.3 240.05 173.288 240.146 173.264H242.234C242.666 172.712 243.11 172.124 243.566 171.5C244.214 170.684 244.73 170.204 245.114 170.06H245.222C245.39 170.06 245.63 170.144 245.942 170.312C246.326 170.528 246.518 170.744 246.518 170.96C246.518 171.272 245.942 172.076 244.79 173.372C245.006 173.396 245.318 173.408 245.726 173.408C246.134 173.408 246.638 173.408 247.238 173.408C247.526 173.408 247.934 173.408 248.462 173.408C249.014 173.408 249.578 173.408 250.154 173.408C250.754 173.384 251.27 173.372 251.702 173.372C252.134 173.348 252.374 173.336 252.422 173.336C252.494 173.36 252.53 173.396 252.53 173.444C252.53 173.66 251.114 173.948 248.282 174.308C246.674 174.524 245.438 174.692 244.574 174.812C243.734 174.932 243.278 175.004 243.206 175.028C242.87 175.316 242.462 175.808 241.982 176.504C241.502 177.2 241.022 177.98 240.542 178.844C240.062 179.708 239.654 180.536 239.318 181.328C239.006 182.096 238.85 182.696 238.85 183.128C238.85 183.512 238.994 183.836 239.282 184.1C239.57 184.34 240.038 184.46 240.686 184.46C241.118 184.46 241.634 184.364 242.234 184.172C242.834 183.98 243.398 183.764 243.926 183.524C244.478 183.26 244.874 183.056 245.114 182.912C245.738 182.528 246.422 182.024 247.166 181.4C247.934 180.752 248.69 180.02 249.434 179.204C249.77 178.868 249.998 178.7 250.118 178.7C250.19 178.7 250.226 178.748 250.226 178.844C250.226 179.036 250.046 179.348 249.686 179.78C249.11 180.476 248.462 181.148 247.742 181.796C247.046 182.42 246.266 182.996 245.402 183.524C244.418 184.124 243.47 184.556 242.558 184.82C241.67 185.084 240.842 185.216 240.074 185.216ZM265.71 188.42C264.726 188.42 263.502 187.832 262.038 186.656C261.006 186.488 260.118 186.26 259.374 185.972C258.654 185.708 258.054 185.384 257.574 185C256.902 184.424 256.314 183.656 255.81 182.696C255.306 181.736 255.054 180.812 255.054 179.924C255.054 179.252 255.21 178.652 255.522 178.124C256.242 176.852 257.154 176.216 258.258 176.216C259.098 176.216 259.59 176.924 259.734 178.34C259.902 179.66 260.034 180.716 260.13 181.508C260.25 182.276 260.346 182.78 260.418 183.02C260.778 184.196 261.39 185.192 262.254 186.008C263.262 186.224 264.354 186.332 265.53 186.332C268.122 186.332 270.606 185.84 272.982 184.856C273.99 184.424 274.974 183.86 275.934 183.164C276.894 182.468 277.686 181.7 278.31 180.86C278.934 180.02 279.246 179.204 279.246 178.412C279.246 177.284 278.25 176.408 276.258 175.784L269.922 174.344C268.626 174.056 267.582 173.552 266.79 172.832C266.022 172.088 265.638 171.248 265.638 170.312C265.638 168.872 266.538 167.432 268.338 165.992C269.25 165.248 270.318 164.624 271.542 164.12C272.766 163.592 274.05 163.196 275.394 162.932C276.762 162.644 278.07 162.5 279.318 162.5C281.094 162.5 282.606 162.776 283.854 163.328C285.126 163.88 285.918 164.684 286.23 165.74C286.302 165.98 286.338 166.244 286.338 166.532C286.338 167.996 285.606 169.016 284.142 169.592C283.254 169.952 282.498 170.132 281.874 170.132C281.49 170.132 281.19 170.06 280.974 169.916C280.926 169.868 280.902 169.808 280.902 169.736C280.902 169.568 281.238 169.472 281.91 169.448C282.318 169.424 282.654 169.388 282.918 169.34C283.182 169.292 283.374 169.244 283.494 169.196C284.406 168.716 284.862 168.008 284.862 167.072C284.862 166.592 284.73 166.088 284.466 165.56C283.722 164.192 281.862 163.508 278.886 163.508C277.806 163.508 276.69 163.628 275.538 163.868C274.386 164.084 273.294 164.42 272.262 164.876C271.23 165.308 270.354 165.86 269.634 166.532C268.386 167.684 267.762 168.716 267.762 169.628C267.762 170.324 268.098 170.948 268.77 171.5C269.466 172.028 270.51 172.424 271.902 172.688L276.15 173.48C277.782 173.792 279.102 174.26 280.11 174.884C281.118 175.484 281.622 176.408 281.622 177.656C281.622 178.76 281.346 179.792 280.794 180.752C280.242 181.712 279.498 182.576 278.562 183.344C277.65 184.088 276.606 184.712 275.43 185.216C272.766 186.392 269.622 186.98 265.998 186.98C265.542 186.98 265.086 186.968 264.63 186.944C264.174 186.92 263.73 186.884 263.298 186.836C263.634 187.028 264.054 187.22 264.558 187.412C265.086 187.604 265.686 187.784 266.358 187.952C266.43 187.976 266.466 188.024 266.466 188.096C266.466 188.312 266.214 188.42 265.71 188.42ZM260.958 185.648C260.31 184.928 259.806 184.184 259.446 183.416C258.918 182.216 258.522 180.74 258.258 178.988C258.066 177.716 257.862 177.08 257.646 177.08C257.454 177.08 257.19 177.224 256.854 177.512C256.542 177.8 256.386 178.412 256.386 179.348C256.386 181.172 257.034 182.756 258.33 184.1C258.978 184.772 259.854 185.288 260.958 185.648ZM284.828 185.216C284.06 185.216 283.448 185.036 282.992 184.676C282.56 184.292 282.344 183.62 282.344 182.66C282.344 182.108 282.512 181.412 282.848 180.572C283.184 179.708 283.604 178.784 284.108 177.8C284.612 176.816 285.116 175.844 285.62 174.884C285.308 174.956 285.032 174.992 284.792 174.992C284.072 174.992 283.712 174.716 283.712 174.164C283.712 173.9 283.808 173.696 284 173.552C284.216 173.408 284.408 173.324 284.576 173.3C284.576 173.3 284.6 173.3 284.648 173.3C284.72 173.3 284.804 173.288 284.9 173.264H286.988C287.42 172.712 287.864 172.124 288.32 171.5C288.968 170.684 289.484 170.204 289.868 170.06H289.976C290.144 170.06 290.384 170.144 290.696 170.312C291.08 170.528 291.272 170.744 291.272 170.96C291.272 171.272 290.696 172.076 289.544 173.372C289.76 173.396 290.072 173.408 290.48 173.408C290.888 173.408 291.392 173.408 291.992 173.408C292.28 173.408 292.688 173.408 293.216 173.408C293.768 173.408 294.332 173.408 294.908 173.408C295.508 173.384 296.024 173.372 296.456 173.372C296.888 173.348 297.128 173.336 297.176 173.336C297.248 173.36 297.284 173.396 297.284 173.444C297.284 173.66 295.868 173.948 293.036 174.308C291.428 174.524 290.192 174.692 289.328 174.812C288.488 174.932 288.032 175.004 287.96 175.028C287.624 175.316 287.216 175.808 286.736 176.504C286.256 177.2 285.776 177.98 285.296 178.844C284.816 179.708 284.408 180.536 284.072 181.328C283.76 182.096 283.604 182.696 283.604 183.128C283.604 183.512 283.748 183.836 284.036 184.1C284.324 184.34 284.792 184.46 285.44 184.46C285.872 184.46 286.388 184.364 286.988 184.172C287.588 183.98 288.152 183.764 288.68 183.524C289.232 183.26 289.628 183.056 289.868 182.912C290.492 182.528 291.176 182.024 291.92 181.4C292.688 180.752 293.444 180.02 294.188 179.204C294.524 178.868 294.752 178.7 294.872 178.7C294.944 178.7 294.98 178.748 294.98 178.844C294.98 179.036 294.8 179.348 294.44 179.78C293.864 180.476 293.216 181.148 292.496 181.796C291.8 182.42 291.02 182.996 290.156 183.524C289.172 184.124 288.224 184.556 287.312 184.82C286.424 185.084 285.596 185.216 284.828 185.216ZM295.696 185.18C295.12 185.18 294.544 184.976 293.968 184.568C293.392 184.16 293.068 183.68 292.996 183.128C292.756 181.28 293.92 179.084 296.488 176.54C299.032 173.996 301.324 172.724 303.364 172.724C303.916 172.724 304.348 172.856 304.66 173.12C304.828 173.288 304.948 173.516 305.02 173.804C305.116 174.092 305.188 174.236 305.236 174.236C305.332 174.236 305.416 174.224 305.488 174.2C305.56 174.152 305.644 174.128 305.74 174.128C306.028 174.128 306.28 174.236 306.496 174.452C306.712 174.668 306.832 174.86 306.856 175.028C306.88 175.076 306.112 176.264 304.552 178.592C302.992 180.872 302.284 182.42 302.428 183.236C302.548 183.788 302.812 184.064 303.22 184.064C304.468 184.064 306.748 182 310.06 177.872C310.132 177.776 310.204 177.728 310.276 177.728C310.396 177.728 310.456 177.812 310.456 177.98C310.456 178.172 310.348 178.412 310.132 178.7C307.084 182.804 304.744 184.856 303.112 184.856C302.896 184.856 302.692 184.82 302.5 184.748C301.444 184.34 300.916 183.548 300.916 182.372C300.916 181.964 300.964 181.556 301.06 181.148L298.828 183.308C298.156 183.98 297.544 184.46 296.992 184.748C296.464 185.036 296.032 185.18 295.696 185.18ZM295.372 184.388C296.764 184.388 298.66 182.864 301.06 179.816L304.876 174.56C304.684 174.224 304.372 174.056 303.94 174.056C302.476 174.056 300.496 175.232 298 177.584C295.408 179.984 294.244 181.964 294.508 183.524C294.628 184.1 294.916 184.388 295.372 184.388ZM308.948 192.38C308.18 192.38 307.508 192.056 306.932 191.408C306.356 190.736 306.08 189.992 306.104 189.176C306.392 189.536 306.776 189.956 307.256 190.436C307.88 191.036 308.492 191.336 309.092 191.336C310.46 191.336 311.936 190.244 313.52 188.06C314.072 187.292 314.636 186.392 315.212 185.36C315.812 184.352 316.376 183.224 316.904 181.976L318.272 178.664L312.98 182.804C311.348 184.076 310.04 184.712 309.056 184.712C308.528 184.712 308.108 184.52 307.796 184.136C307.484 183.752 307.328 183.356 307.328 182.948C307.328 181.916 308.216 180.224 309.992 177.872C311.768 175.496 313.1 174.308 313.988 174.308C314.732 174.308 315.104 174.584 315.104 175.136C315.104 175.352 314.036 176.6 311.9 178.88C309.788 181.136 308.732 182.66 308.732 183.452C308.732 183.764 308.936 183.92 309.344 183.92C310.112 183.92 311.78 182.924 314.348 180.932C315.404 180.092 316.34 179.324 317.156 178.628C317.972 177.932 318.656 177.308 319.208 176.756C319.4 176.516 319.592 176.288 319.784 176.072C319.976 175.832 320.156 175.592 320.324 175.352C320.78 174.824 321.236 174.56 321.692 174.56C322.34 174.56 322.664 174.824 322.664 175.352C322.664 175.448 322.16 176.24 321.152 177.728C320.624 178.544 320.204 179.18 319.892 179.636C319.58 180.068 319.4 180.344 319.352 180.464C318.608 181.904 317.468 184.004 315.932 186.764C313.604 190.508 311.276 192.38 308.948 192.38ZM326.124 185.036C325.716 185.036 325.356 184.916 325.044 184.676C324.756 184.412 324.612 184.112 324.612 183.776C324.612 183.08 325.068 182.732 325.98 182.732C326.316 182.732 326.652 182.852 326.988 183.092C327.324 183.308 327.492 183.596 327.492 183.956C327.492 184.244 327.336 184.496 327.024 184.712C326.712 184.928 326.412 185.036 326.124 185.036Z" fill="#0D99FF"/>
</svg>
